<mxfile host="65bd71144e">
    <diagram id="IoOYVrfuygNxTekeomGr" name="Страница 1">
        <mxGraphModel dx="769" dy="525" grid="1" gridSize="10" guides="1" tooltips="1" connect="1" arrows="1" fold="1" page="1" pageScale="1" pageWidth="827" pageHeight="1169" math="0" shadow="0">
            <root>
                <mxCell id="0"/>
                <mxCell id="1" parent="0"/>
                <mxCell id="4" value="&lt;p style=&quot;margin:0px;margin-top:4px;text-align:center;&quot;&gt;User&lt;/p&gt;&lt;hr&gt;&lt;p style=&quot;text-align: left; font-size: 10px; margin: 0px;&quot;&gt;&lt;span style=&quot;background-color: initial; font-size: 12px;&quot;&gt;-id: int&lt;/span&gt;&lt;/p&gt;&lt;p style=&quot;text-align: left; font-size: 10px; margin: 0px;&quot;&gt;&lt;span style=&quot;background-color: initial; font-size: 12px;&quot;&gt;-phone: int&lt;/span&gt;&lt;/p&gt;&lt;p style=&quot;text-align: left; font-size: 10px; margin: 0px;&quot;&gt;&lt;span style=&quot;background-color: initial; font-size: 12px;&quot;&gt;-email: str&lt;/span&gt;&lt;/p&gt;&lt;p style=&quot;text-align: left; font-size: 10px; margin: 0px;&quot;&gt;&lt;span style=&quot;background-color: initial; font-size: 12px;&quot;&gt;-name: str&lt;/span&gt;&lt;/p&gt;&lt;p style=&quot;text-align: left; font-size: 10px; margin: 0px;&quot;&gt;&lt;span style=&quot;background-color: initial; font-size: 12px;&quot;&gt;-surname: str&lt;/span&gt;&lt;/p&gt;&lt;p style=&quot;text-align: left; font-size: 10px; margin: 0px;&quot;&gt;&lt;span style=&quot;background-color: initial; font-size: 12px;&quot;&gt;-hash_password: int&lt;/span&gt;&lt;/p&gt;&lt;p style=&quot;text-align: left; font-size: 10px; margin: 0px;&quot;&gt;&lt;span style=&quot;background-color: initial; font-size: 12px;&quot;&gt;-real_estate: Adress = None&lt;/span&gt;&lt;/p&gt;&lt;p style=&quot;text-align: left; font-size: 10px; margin: 0px;&quot;&gt;&lt;span style=&quot;font-size: 12px;&quot;&gt;-passport: Passport = None&lt;/span&gt;&lt;span style=&quot;background-color: initial; font-size: 12px;&quot;&gt;&lt;br&gt;&lt;/span&gt;&lt;/p&gt;&lt;p style=&quot;text-align: left; font-size: 10px; margin: 0px;&quot;&gt;&lt;span style=&quot;background-color: initial; font-size: 12px;&quot;&gt;-inn: Inn = None&lt;/span&gt;&lt;/p&gt;&lt;p style=&quot;text-align: left; font-size: 10px; margin: 0px;&quot;&gt;&lt;span style=&quot;background-color: initial; font-size: 12px;&quot;&gt;-snils: Snils = None&lt;/span&gt;&lt;/p&gt;&lt;p style=&quot;text-align: left; margin: 0px;&quot;&gt;-properties: list[Property] = None&lt;/p&gt;&lt;p style=&quot;text-align: left; font-size: 10px; margin: 0px;&quot;&gt;&lt;span style=&quot;background-color: initial; font-size: 12px;&quot;&gt;-educations: list[Education] = None&lt;/span&gt;&lt;/p&gt;&lt;hr style=&quot;text-align: left;&quot;&gt;&lt;p style=&quot;text-align: left; margin: 0px 0px 0px 8px;&quot;&gt;+get_id(): int&lt;/p&gt;&lt;p style=&quot;text-align: left; margin: 0px 0px 0px 8px;&quot;&gt;+get_phone(): int&lt;/p&gt;&lt;p style=&quot;text-align: left; margin: 0px 0px 0px 8px;&quot;&gt;+set_phone(int): None&lt;/p&gt;&lt;p style=&quot;text-align: left; margin: 0px 0px 0px 8px;&quot;&gt;+get_email(): str&lt;/p&gt;&lt;p style=&quot;text-align: left; margin: 0px 0px 0px 8px;&quot;&gt;+set_email(str): None&lt;/p&gt;&lt;p style=&quot;text-align: left; margin: 0px 0px 0px 8px;&quot;&gt;+get_name(): str&lt;/p&gt;&lt;p style=&quot;text-align: left; margin: 0px 0px 0px 8px;&quot;&gt;+set_name(str): None&lt;/p&gt;&lt;p style=&quot;text-align: left; margin: 0px 0px 0px 8px;&quot;&gt;+get_surname(): str&lt;/p&gt;&lt;p style=&quot;text-align: left; margin: 0px 0px 0px 8px;&quot;&gt;+set_surname(str): None&lt;/p&gt;&lt;p style=&quot;text-align: left; margin: 0px 0px 0px 8px;&quot;&gt;+get_hash_password(): int&lt;/p&gt;&lt;p style=&quot;text-align: left; margin: 0px 0px 0px 8px;&quot;&gt;+set_hash_password(int): None&lt;/p&gt;&lt;p style=&quot;text-align: left; margin: 0px 0px 0px 8px;&quot;&gt;+get_real_estate(): Adress&lt;/p&gt;&lt;p style=&quot;text-align: left; margin: 0px 0px 0px 8px;&quot;&gt;+set_real_estate(Adress): None&lt;/p&gt;&lt;p style=&quot;text-align: left; margin: 0px 0px 0px 8px;&quot;&gt;+get_passport(): Passport&lt;/p&gt;&lt;p style=&quot;text-align: left; margin: 0px 0px 0px 8px;&quot;&gt;+set_passport(Passport): None&lt;/p&gt;&lt;p style=&quot;text-align: left; margin: 0px 0px 0px 8px;&quot;&gt;+get_inn(): Inn&lt;/p&gt;&lt;p style=&quot;text-align: left; margin: 0px 0px 0px 8px;&quot;&gt;+set_inn(Inn): None&lt;/p&gt;&lt;p style=&quot;text-align: left; margin: 0px 0px 0px 8px;&quot;&gt;+get_snils(): Snils&lt;/p&gt;&lt;p style=&quot;text-align: left; margin: 0px 0px 0px 8px;&quot;&gt;+set_snils(Snils): None&lt;/p&gt;&lt;p style=&quot;text-align: left; margin: 0px 0px 0px 8px;&quot;&gt;+get_properties(): list[Property]&lt;/p&gt;&lt;p style=&quot;text-align: left; margin: 0px 0px 0px 8px;&quot;&gt;+add_property(Property): bool;&lt;/p&gt;&lt;p style=&quot;text-align: left; margin: 0px 0px 0px 8px;&quot;&gt;+del_property(int): bool&lt;/p&gt;&lt;p style=&quot;text-align: left; margin: 0px 0px 0px 8px;&quot;&gt;+get_educations(): list[Education]&lt;/p&gt;&lt;p style=&quot;text-align: left; margin: 0px 0px 0px 8px;&quot;&gt;+add_education(Education): bool;&lt;/p&gt;&lt;p style=&quot;text-align: left; margin: 0px 0px 0px 8px;&quot;&gt;+del_education(int): bool&lt;/p&gt;" style="shape=rect;html=1;overflow=fill;whiteSpace=wrap;" vertex="1" parent="1">
                    <mxGeometry x="10" width="200" height="580" as="geometry"/>
                </mxCell>
                <mxCell id="5" value="&lt;p style=&quot;margin:0px;margin-top:4px;text-align:center;&quot;&gt;AbstractUser&lt;/p&gt;&lt;hr&gt;&lt;p style=&quot;text-align: left; font-size: 10px; margin: 0px;&quot;&gt;&lt;span style=&quot;background-color: initial; font-size: 12px;&quot;&gt;-id: int&lt;/span&gt;&lt;/p&gt;&lt;p style=&quot;text-align: left; font-size: 10px; margin: 0px;&quot;&gt;&lt;span style=&quot;background-color: initial; font-size: 12px;&quot;&gt;-phone: int&lt;/span&gt;&lt;/p&gt;&lt;p style=&quot;text-align: left; font-size: 10px; margin: 0px;&quot;&gt;&lt;span style=&quot;background-color: initial; font-size: 12px;&quot;&gt;-email: str&lt;/span&gt;&lt;/p&gt;&lt;p style=&quot;text-align: left; font-size: 10px; margin: 0px;&quot;&gt;&lt;span style=&quot;background-color: initial; font-size: 12px;&quot;&gt;-name: str&lt;/span&gt;&lt;/p&gt;&lt;p style=&quot;text-align: left; font-size: 10px; margin: 0px;&quot;&gt;&lt;span style=&quot;background-color: initial; font-size: 12px;&quot;&gt;-surname: str&lt;/span&gt;&lt;/p&gt;&lt;p style=&quot;text-align: left; font-size: 10px; margin: 0px;&quot;&gt;&lt;span style=&quot;background-color: initial; font-size: 12px;&quot;&gt;-hash_password: int&lt;/span&gt;&lt;/p&gt;&lt;hr style=&quot;text-align: left;&quot;&gt;&lt;p style=&quot;text-align: left; margin: 0px 0px 0px 8px;&quot;&gt;+get_id(): int&lt;/p&gt;&lt;p style=&quot;text-align: left; margin: 0px 0px 0px 8px;&quot;&gt;+get_phone(): int&lt;/p&gt;&lt;p style=&quot;text-align: left; margin: 0px 0px 0px 8px;&quot;&gt;+set_phone(int): None&lt;/p&gt;&lt;p style=&quot;text-align: left; margin: 0px 0px 0px 8px;&quot;&gt;+get_email(): str&lt;/p&gt;&lt;p style=&quot;text-align: left; margin: 0px 0px 0px 8px;&quot;&gt;+set_email(str): None&lt;/p&gt;&lt;p style=&quot;text-align: left; margin: 0px 0px 0px 8px;&quot;&gt;+get_name(): str&lt;/p&gt;&lt;p style=&quot;text-align: left; margin: 0px 0px 0px 8px;&quot;&gt;+set_name(str): None&lt;/p&gt;&lt;p style=&quot;text-align: left; margin: 0px 0px 0px 8px;&quot;&gt;+get_surname(): str&lt;/p&gt;&lt;p style=&quot;text-align: left; margin: 0px 0px 0px 8px;&quot;&gt;+set_surname(str): None&lt;/p&gt;&lt;p style=&quot;text-align: left; margin: 0px 0px 0px 8px;&quot;&gt;+get_hash_password(): int&lt;/p&gt;&lt;p style=&quot;text-align: left; margin: 0px 0px 0px 8px;&quot;&gt;+set_hash_password(int): None&lt;/p&gt;" style="shape=rect;html=1;overflow=fill;whiteSpace=wrap;" vertex="1" parent="1">
                    <mxGeometry x="280" width="200" height="300" as="geometry"/>
                </mxCell>
                <mxCell id="6" value="&lt;p style=&quot;margin:0px;margin-top:4px;text-align:center;&quot;&gt;Adress&lt;/p&gt;&lt;hr&gt;&lt;p style=&quot;text-align: left; font-size: 10px; margin: 0px;&quot;&gt;&lt;span style=&quot;background-color: initial; font-size: 12px;&quot;&gt;-id: int&lt;/span&gt;&lt;/p&gt;&lt;p style=&quot;text-align: left; font-size: 10px; margin: 0px;&quot;&gt;&lt;span style=&quot;background-color: initial; font-size: 12px;&quot;&gt;-country: str = 'Россия'&lt;/span&gt;&lt;/p&gt;&lt;p style=&quot;text-align: left; font-size: 10px; margin: 0px;&quot;&gt;&lt;span style=&quot;background-color: initial; font-size: 12px;&quot;&gt;-region: str&lt;/span&gt;&lt;/p&gt;&lt;p style=&quot;text-align: left; font-size: 10px; margin: 0px;&quot;&gt;&lt;span style=&quot;background-color: initial; font-size: 12px;&quot;&gt;-district: str = None&lt;/span&gt;&lt;/p&gt;&lt;p style=&quot;text-align: left; font-size: 10px; margin: 0px;&quot;&gt;&lt;span style=&quot;background-color: initial; font-size: 12px;&quot;&gt;-locality: str&lt;/span&gt;&lt;/p&gt;&lt;p style=&quot;text-align: left; font-size: 10px; margin: 0px;&quot;&gt;&lt;span style=&quot;background-color: initial; font-size: 12px;&quot;&gt;-street: str&lt;/span&gt;&lt;/p&gt;&lt;p style=&quot;text-align: left; font-size: 10px; margin: 0px;&quot;&gt;&lt;span style=&quot;background-color: initial; font-size: 12px;&quot;&gt;-house: int&lt;/span&gt;&lt;/p&gt;&lt;p style=&quot;text-align: left; font-size: 10px; margin: 0px;&quot;&gt;&lt;span style=&quot;background-color: initial; font-size: 12px;&quot;&gt;-building: str = None&lt;/span&gt;&lt;/p&gt;&lt;p style=&quot;text-align: left; font-size: 10px; margin: 0px;&quot;&gt;&lt;span style=&quot;background-color: initial; font-size: 12px;&quot;&gt;-apartment: int = None&lt;/span&gt;&lt;/p&gt;&lt;hr style=&quot;text-align: left;&quot;&gt;&lt;p style=&quot;text-align: left; margin: 0px 0px 0px 8px;&quot;&gt;+get_id(): int&lt;/p&gt;&lt;p style=&quot;text-align: left; margin: 0px 0px 0px 8px;&quot;&gt;+get_country(): str&lt;/p&gt;&lt;p style=&quot;text-align: left; margin: 0px 0px 0px 8px;&quot;&gt;+set_country(str): None&lt;/p&gt;&lt;p style=&quot;text-align: left; margin: 0px 0px 0px 8px;&quot;&gt;+get_region(): str&lt;/p&gt;&lt;p style=&quot;text-align: left; margin: 0px 0px 0px 8px;&quot;&gt;+set_region(str): None&lt;/p&gt;&lt;p style=&quot;text-align: left; margin: 0px 0px 0px 8px;&quot;&gt;+get_district(): str&lt;/p&gt;&lt;p style=&quot;text-align: left; margin: 0px 0px 0px 8px;&quot;&gt;+set_district(str): None&lt;/p&gt;&lt;p style=&quot;text-align: left; margin: 0px 0px 0px 8px;&quot;&gt;+get_locality(): str&lt;/p&gt;&lt;p style=&quot;text-align: left; margin: 0px 0px 0px 8px;&quot;&gt;+set_locality(str): None&lt;/p&gt;&lt;p style=&quot;text-align: left; margin: 0px 0px 0px 8px;&quot;&gt;+get_street(): str&lt;br&gt;&lt;/p&gt;&lt;p style=&quot;text-align: left; margin: 0px 0px 0px 8px;&quot;&gt;+set_street(str): None&lt;/p&gt;&lt;p style=&quot;text-align: left; margin: 0px 0px 0px 8px;&quot;&gt;&lt;span style=&quot;background-color: initial;&quot;&gt;+get_house(): int&lt;/span&gt;&lt;br&gt;&lt;/p&gt;&lt;p style=&quot;text-align: left; margin: 0px 0px 0px 8px;&quot;&gt;+set_house(int): None&lt;/p&gt;&lt;p style=&quot;text-align: left; margin: 0px 0px 0px 8px;&quot;&gt;+get_building(): str&lt;br&gt;&lt;/p&gt;&lt;p style=&quot;text-align: left; margin: 0px 0px 0px 8px;&quot;&gt;+set_building(str): None&lt;/p&gt;&lt;p style=&quot;text-align: left; margin: 0px 0px 0px 8px;&quot;&gt;&lt;span style=&quot;background-color: initial;&quot;&gt;+get_apartment(): int&lt;/span&gt;&lt;br&gt;&lt;/p&gt;&lt;p style=&quot;text-align: left; margin: 0px 0px 0px 8px;&quot;&gt;+set_apartment(int): None&lt;/p&gt;" style="shape=rect;html=1;overflow=fill;whiteSpace=wrap;" vertex="1" parent="1">
                    <mxGeometry x="520" width="170" height="430" as="geometry"/>
                </mxCell>
            </root>
        </mxGraphModel>
    </diagram>
</mxfile>